<?xml version="1.0" encoding="utf-8"?>
<!-- Generator: Adobe Illustrator 16.0.0, SVG Export Plug-In . SVG Version: 6.00 Build 0)  -->
<svg version="1.2" baseProfile="tiny" id="Layer_1" xmlns="http://www.w3.org/2000/svg" xmlns:xlink="http://www.w3.org/1999/xlink"
	 x="0px" y="0px" width="32px" height="32px" viewBox="0 0 32 32" xml:space="preserve">
<path fill-rule="evenodd" fill="#FFFFFF" d="M15.999,0C7.165,0,0,7.345,0,16.406c0,7.247,4.584,13.396,10.943,15.565
	c0.8,0.15,1.092-0.356,1.092-0.791c0-0.39-0.014-1.421-0.022-2.791c-4.45,0.992-5.389-2.199-5.389-2.199
	c-0.728-1.896-1.776-2.4-1.776-2.4c-1.453-1.018,0.11-0.997,0.11-0.997c1.605,0.116,2.45,1.69,2.45,1.69
	c1.428,2.507,3.745,1.783,4.657,1.363c0.146-1.06,0.558-1.783,1.016-2.193c-3.553-0.414-7.289-1.821-7.289-8.108
	c0-1.791,0.624-3.255,1.647-4.402C7.274,10.73,6.726,9.063,7.595,6.805c0,0,1.344-0.442,4.399,1.682
	c1.277-0.364,2.646-0.547,4.006-0.553c1.359,0.006,2.727,0.189,4.006,0.553c3.054-2.124,4.395-1.682,4.395-1.682
	c0.873,2.258,0.325,3.926,0.16,4.341c1.025,1.147,1.645,2.611,1.645,4.402c0,6.302-3.742,7.689-7.307,8.095
	c0.576,0.506,1.087,1.508,1.087,3.038c0,2.193-0.02,3.962-0.02,4.5c0,0.438,0.289,0.949,1.101,0.789
	C27.42,29.796,32,23.651,32,16.406C32,7.345,24.835,0,15.999,0z"/>
</svg>
